<svg xmlns="http://www.w3.org/2000/svg" width="20" height="20" viewBox="0 0 20 20">
  <g id="Group_7" data-name="Group 7" transform="translate(-877.042 -592.882)">
    <path id="Path_12" data-name="Path 12" d="M21.41,11.58l-9-9A1.988,1.988,0,0,0,11,2H4A2.006,2.006,0,0,0,2,4v7a2,2,0,0,0,.59,1.42l9,9A1.987,1.987,0,0,0,13,22a1.955,1.955,0,0,0,1.41-.59l7-7A1.955,1.955,0,0,0,22,13,2.02,2.02,0,0,0,21.41,11.58ZM13,20.01,4,11V4h7V3.99l9,9Z" transform="translate(875.042 590.882)"/>
    <circle id="Ellipse_2" data-name="Ellipse 2" cx="1.53" cy="1.53" r="1.53" transform="translate(880.088 595.982)"/>
  </g>
</svg>
