<svg xmlns="http://www.w3.org/2000/svg" width="20" height="17.146" viewBox="0 0 20 17.146">
  <g id="Group_6" data-name="Group 6" transform="translate(-571.882 -572.295)">
    <path id="Path_14" data-name="Path 14" d="M4.017,18.043v-.656a.954.954,0,0,1,.414-.817,10.982,10.982,0,0,1,5.638-1.553.222.222,0,0,1,.081.01,6.945,6.945,0,0,1,.6-2c-.222-.02-.444-.03-.676-.03A12.986,12.986,0,0,0,3.4,14.836,2.947,2.947,0,0,0,2,17.387V20.06h9.339a7.194,7.194,0,0,1-.978-2.017Z" transform="translate(569.882 568.372)"/>
    <path id="Path_15" data-name="Path 15" d="M10.034,12.069A4.034,4.034,0,1,0,6,8.034,4.033,4.033,0,0,0,10.034,12.069Zm0-6.051A2.017,2.017,0,1,1,8.017,8.034,2.023,2.023,0,0,1,10.034,6.017Z" transform="translate(569.916 568.295)"/>
    <path id="Path_16" data-name="Path 16" d="M20.824,16.043a4.375,4.375,0,0,0-.061-.635l1.15-1.019L20.9,12.644l-1.462.494a3.678,3.678,0,0,0-1.089-.635l-.3-1.5H16.033l-.3,1.5a3.678,3.678,0,0,0-1.089.635l-1.462-.494L12.17,14.389l1.15,1.019a4.375,4.375,0,0,0-.061.635,4.375,4.375,0,0,0,.061.635L12.17,17.7l1.009,1.745,1.462-.494a3.678,3.678,0,0,0,1.089.635l.3,1.5H18.05l.3-1.5a3.678,3.678,0,0,0,1.089-.635l1.462.494L21.913,17.7l-1.15-1.019A4.375,4.375,0,0,0,20.824,16.043ZM17.041,18.06a2.017,2.017,0,1,1,2.017-2.017A2.023,2.023,0,0,1,17.041,18.06Z" transform="translate(569.969 568.355)"/>
  </g>
</svg>
